<?xml version="1.0" standalone="no"?>
<!DOCTYPE svg PUBLIC "-//W3C//DTD SVG 20010904//EN"
 "http://www.w3.org/TR/2001/REC-SVG-20010904/DTD/svg10.dtd">
<svg version="1.0" xmlns="http://www.w3.org/2000/svg"
 width="92.000000pt" height="92.000000pt" viewBox="0 0 92.000000 92.000000"
 preserveAspectRatio="xMidYMid meet">
<metadata>
Created by potrace 1.11, written by Peter Selinger 2001-2013
</metadata>
<g transform="translate(0.000000,92.000000) scale(0.100000,-0.100000)"
fill="#000000" stroke="none">
<path d="M276 800 c-98 -38 -180 -71 -182 -73 -5 -4 -94 -309 -94 -319 0 -5 7
-8 15 -8 14 0 24 27 84 235 l20 70 171 64 171 64 112 -42 c62 -23 121 -46 132
-51 11 -5 37 -14 58 -21 34 -12 39 -18 53 -69 8 -30 19 -66 24 -80 4 -14 18
-58 30 -97 21 -73 33 -92 45 -73 5 8 -78 316 -89 327 -3 4 -371 144 -371 142
0 0 -80 -31 -179 -69z"/>
<path d="M300 744 c-80 -31 -148 -59 -153 -63 -17 -16 -86 -266 -76 -276 10
-10 14 -11 43 -14 12 -1 15 -27 14 -148 0 -82 0 -158 1 -170 l1 -23 325 0
c253 0 325 3 326 13 1 6 3 77 4 157 3 190 2 179 24 175 11 -2 26 2 34 8 13 10
10 29 -23 141 -21 71 -42 132 -47 137 -10 10 -302 119 -317 118 -6 0 -76 -25
-156 -55z m299 -28 c78 -30 145 -57 148 -60 3 -3 20 -55 38 -115 l33 -110 -32
-3 -31 -3 -2 -145 c-1 -80 -2 -157 -3 -172 0 -27 -1 -27 -70 -27 -65 0 -70 2
-71 22 0 12 -1 67 -2 122 l-2 100 -152 3 -153 3 0 -125 0 -124 -67 1 -68 1 -5
171 -5 170 -26 3 -26 3 31 109 c17 60 34 112 38 115 3 4 68 30 145 60 76 29
138 53 138 54 0 1 65 -24 144 -53z m-95 -457 c-21 -21 -43 -39 -49 -39 -6 0
-28 18 -50 40 l-39 40 88 -1 88 -1 -38 -39z m-83 -62 c6 -8 -70 -87 -83 -87
-4 0 -3 146 1 159 1 5 69 -56 82 -72z m154 -12 c1 -41 -1 -75 -4 -75 -3 1 -26
19 -50 40 l-43 40 43 39 c24 22 46 37 48 35 3 -2 5 -38 6 -79z m-36 -96 c1 -4
-37 -6 -84 -7 -47 0 -85 2 -85 5 0 2 19 21 42 43 l42 39 42 -37 c23 -20 43
-40 43 -43z"/>
<path d="M420 692 c-33 -16 -35 -20 -38 -75 -2 -41 1 -57 10 -58 59 -4 131 -4
139 2 6 3 9 30 7 60 -3 51 -5 55 -38 71 -43 21 -37 21 -80 0z m69 -32 c11 -5
18 -21 19 -40 1 -30 0 -30 -49 -30 l-50 0 5 32 c7 44 36 59 75 38z"/>
</g>
</svg>
